<?xml version="1.0" encoding="utf-8"?>
<!-- Svg Vector Icons : http://www.onlinewebfonts.com/icon -->
<!DOCTYPE svg PUBLIC "-//W3C//DTD SVG 1.1//EN" "http://www.w3.org/Graphics/SVG/1.1/DTD/svg11.dtd">
<svg version="1.1" xmlns="http://www.w3.org/2000/svg" xmlns:xlink="http://www.w3.org/1999/xlink" x="0px" y="0px" viewBox="0 0 1000 1000" enable-background="new 0 0 1000 1000" xml:space="preserve">
<metadata> Svg Vector Icons : http://www.onlinewebfonts.com/icon </metadata>
<g><path d="M720.5,153.3c5,0,10.1,0.2,15,0.5c18,1.3,35.5,5.1,51.9,11.1c15.8,5.8,30.7,13.8,44.1,23.7c13.3,9.7,25.1,21.3,35.2,34.3c10.2,13.2,18.5,27.8,24.7,43.4c6.4,16.2,10.5,33.4,12.3,51.3c1.5,15.8,1.2,31.7-1,47.4c-1.9,14.1-5.5,28.5-10.5,43c-5.1,14.8-12,30.2-20.6,45.9c-8.7,16.1-19,32.4-31.5,49.9c-12.3,17.2-26.3,34.9-42.6,54c-15.6,18.3-33,37.3-53.2,58.3c-18.5,19.2-39.1,39.8-62.9,62.8c-20.5,19.8-43.2,41.3-71.6,67.7c-24.2,22.5-49,45.4-73,67.5l-6.4,5.9c-2.9,2.7-5.7,5.3-8.5,7.9c-4.7,4.4-9.2,8.6-13.3,12.2c-2.4,2.1-4.9,3.8-7.6,5.3c-0.1-0.1-0.2-0.1-0.4-0.2c-4.2-2.1-8.4-4.9-12.5-8.1c-4-3.2-8.8-7.5-13.8-12.1c-2.6-2.3-5.2-4.7-8-7.2c-23.9-21.1-52-46.2-80-71.5c-27.7-25.1-50.5-46.1-71.6-66.3c-23.5-22.3-43.9-42.5-62.4-61.7c-19.8-20.5-36.9-39.3-52.4-57.5c-16-18.8-29.6-36.4-41.7-53.6c-12.1-17.4-22.2-33.7-30.7-49.9c-8.3-15.8-15-31.5-20-46.6c-4.9-14.9-8.4-29.9-10.3-44.6c-2.2-16.6-2.4-33.1-0.8-49c1.8-17.8,6-35.1,12.4-51.2c6.2-15.6,14.6-30.2,24.8-43.3c10.1-13,22-24.5,35.3-34.2c13.5-9.8,28.3-17.8,44.2-23.6c16.5-6,34-9.7,52-11c4.5-0.3,9.1-0.5,13.7-0.5c15.9,0,31.9,2,47.4,5.8c21.1,5.2,41.2,13.7,60,25.3c18.7,11.5,35.1,25.5,48.7,41.6c16.2,19.2,40.1,30.2,65.2,30.2s49-11.1,65.2-30.2c10.1-11.9,21.8-22.8,34.9-32.3c17.7-12.9,37.2-22.9,57.9-29.9C678.7,156.9,699.8,153.3,720.5,153.3 M720.5,68c-30.4,0-60.8,5.2-89.6,14.9c-28.9,9.7-56.4,23.9-81.1,41.8c-18.3,13.4-35.1,28.8-49.8,46.2c-19.7-23.3-43.2-43.2-69.2-59.2c-26-16-54.5-28-84.1-35.4c-22.3-5.5-45.1-8.3-68-8.3c-6.6,0-13.2,0.2-19.7,0.7c-25.7,1.8-51.1,7.1-75.3,16c-23.2,8.5-45.3,20.2-65.2,34.8c-19.7,14.4-37.4,31.5-52.3,50.8c-15.1,19.5-27.5,41.1-36.6,64C20,258.1,14,283.2,11.4,308.7c-2.3,22.8-1.8,45.8,1.1,68.5c2.7,20.6,7.4,40.8,13.9,60.5C33.3,458.1,42,477.9,52,497c10.8,20.5,23.1,40.2,36.3,59.2c14.5,20.7,30.2,40.6,46.5,59.9c18,21.2,36.8,41.6,56.1,61.6c21.2,21.9,42.9,43.2,64.9,64.2c24.1,22.9,48.5,45.4,73.1,67.7c26.7,24.2,53.7,48.2,80.7,72.1c8.5,7.5,16.7,15.4,25.6,22.4c8.3,6.6,17.3,12.4,26.7,17.2c11.9,6.1,25,10.7,38.5,10.7c0.4,0,0.7,0,1.1,0c13.7-0.3,27.1-4.6,39.2-11c8.6-4.6,16.7-10.2,24-16.6c8-7,15.6-14.4,23.4-21.6c26.6-24.5,53.3-49,79.7-73.7c24.5-22.8,48.8-45.6,72.8-68.8c22-21.3,43.8-42.9,65.1-64.9c19.4-20.1,38.4-40.7,56.5-62c16.5-19.3,32.4-39.2,47.2-59.9c13.5-18.9,26-38.4,37.1-58.8c10.2-18.8,19.1-38.4,26.2-58.6c6.7-19.2,11.6-39.1,14.4-59.3c3.1-22.3,3.5-44.9,1.4-67.3c-2.5-25.5-8.4-50.6-17.9-74.5c-9.1-22.9-21.4-44.6-36.5-64.1c-14.9-19.3-32.5-36.5-52.2-51c-19.9-14.6-41.9-26.4-65.1-35c-24.2-8.9-49.6-14.3-75.2-16.2C734.7,68.2,727.6,68,720.5,68L720.5,68z"/></g>
</svg>